<mxfile host="app.diagrams.net" modified="2022-03-10T14:48:07.897Z" agent="5.0 (Macintosh; Intel Mac OS X 10_15_7) AppleWebKit/537.36 (KHTML, like Gecko) Chrome/99.0.4844.51 Safari/537.36" etag="pshBLW0ho1v1lCqIL8fv" version="17.1.0" type="github">
  <diagram id="kgpKYQtTHZ0yAKxKKP6v" name="Page-1">
    <mxGraphModel dx="1666" dy="828" grid="1" gridSize="10" guides="1" tooltips="1" connect="1" arrows="1" fold="1" page="1" pageScale="1" pageWidth="850" pageHeight="1100" math="0" shadow="0">
      <root>
        <mxCell id="0" />
        <mxCell id="1" parent="0" />
        <mxCell id="lReozOARqJlpO5b43kN0-45" value="" style="rounded=0;whiteSpace=wrap;html=1;" vertex="1" parent="1">
          <mxGeometry x="50" y="330" width="350" height="60" as="geometry" />
        </mxCell>
        <mxCell id="lReozOARqJlpO5b43kN0-1" value="Actor" style="shape=umlActor;verticalLabelPosition=bottom;verticalAlign=top;html=1;outlineConnect=0;" vertex="1" parent="1">
          <mxGeometry x="60" y="60" width="30" height="60" as="geometry" />
        </mxCell>
        <mxCell id="lReozOARqJlpO5b43kN0-4" value="" style="points=[];perimeter=orthogonalPerimeter;rounded=0;shadow=0;strokeWidth=1;" vertex="1" parent="1">
          <mxGeometry x="70" y="150" width="10" height="280" as="geometry" />
        </mxCell>
        <mxCell id="3nuBFxr9cyL0pnOWT2aG-3" value="consulta(username,password,nombre,apellido,email)" style="verticalAlign=bottom;startArrow=oval;endArrow=block;startSize=8;shadow=0;strokeWidth=1;exitX=1;exitY=0.004;exitDx=0;exitDy=0;exitPerimeter=0;" parent="1" edge="1" source="lReozOARqJlpO5b43kN0-4">
          <mxGeometry relative="1" as="geometry">
            <mxPoint x="190" y="150" as="sourcePoint" />
            <mxPoint x="365" y="151.12" as="targetPoint" />
          </mxGeometry>
        </mxCell>
        <mxCell id="3nuBFxr9cyL0pnOWT2aG-1" value="Controllers" style="shape=umlLifeline;perimeter=lifelinePerimeter;container=1;collapsible=0;recursiveResize=0;rounded=0;shadow=0;strokeWidth=1;" parent="1" vertex="1">
          <mxGeometry x="320" y="80" width="100" height="300" as="geometry" />
        </mxCell>
        <mxCell id="lReozOARqJlpO5b43kN0-9" value="" style="points=[];perimeter=orthogonalPerimeter;rounded=0;shadow=0;strokeWidth=1;" vertex="1" parent="3nuBFxr9cyL0pnOWT2aG-1">
          <mxGeometry x="45" y="70" width="10" height="10" as="geometry" />
        </mxCell>
        <mxCell id="lReozOARqJlpO5b43kN0-14" value="" style="curved=1;endArrow=classic;html=1;rounded=0;" edge="1" parent="3nuBFxr9cyL0pnOWT2aG-1">
          <mxGeometry width="50" height="50" relative="1" as="geometry">
            <mxPoint x="55" y="70" as="sourcePoint" />
            <mxPoint x="55" y="100" as="targetPoint" />
            <Array as="points">
              <mxPoint x="125" y="80" />
              <mxPoint x="55" y="100" />
            </Array>
          </mxGeometry>
        </mxCell>
        <mxCell id="lReozOARqJlpO5b43kN0-10" value="" style="points=[];perimeter=orthogonalPerimeter;rounded=0;shadow=0;strokeWidth=1;" vertex="1" parent="3nuBFxr9cyL0pnOWT2aG-1">
          <mxGeometry x="45" y="90" width="10" height="20" as="geometry" />
        </mxCell>
        <mxCell id="lReozOARqJlpO5b43kN0-28" value="" style="points=[];perimeter=orthogonalPerimeter;rounded=0;shadow=0;strokeWidth=1;" vertex="1" parent="3nuBFxr9cyL0pnOWT2aG-1">
          <mxGeometry x="45" y="130" width="10" height="10" as="geometry" />
        </mxCell>
        <mxCell id="lReozOARqJlpO5b43kN0-12" value="" style="points=[];perimeter=orthogonalPerimeter;rounded=0;shadow=0;strokeWidth=1;" vertex="1" parent="3nuBFxr9cyL0pnOWT2aG-1">
          <mxGeometry x="45" y="190" width="10" height="20" as="geometry" />
        </mxCell>
        <mxCell id="lReozOARqJlpO5b43kN0-46" value="" style="points=[];perimeter=orthogonalPerimeter;rounded=0;shadow=0;strokeWidth=1;" vertex="1" parent="3nuBFxr9cyL0pnOWT2aG-1">
          <mxGeometry x="45" y="270" width="10" height="20" as="geometry" />
        </mxCell>
        <mxCell id="3nuBFxr9cyL0pnOWT2aG-5" value="Servicio consulta" style="shape=umlLifeline;perimeter=lifelinePerimeter;container=0;collapsible=0;recursiveResize=0;rounded=0;shadow=0;strokeWidth=1;" parent="1" vertex="1">
          <mxGeometry x="530" y="80" width="100" height="300" as="geometry" />
        </mxCell>
        <mxCell id="lReozOARqJlpO5b43kN0-15" value="validar campos&lt;br&gt;" style="text;html=1;strokeColor=none;fillColor=none;align=center;verticalAlign=middle;whiteSpace=wrap;rounded=0;" vertex="1" parent="1">
          <mxGeometry x="400" y="130" width="60" height="30" as="geometry" />
        </mxCell>
        <mxCell id="lReozOARqJlpO5b43kN0-18" value="Servicio consulta" style="shape=umlLifeline;perimeter=lifelinePerimeter;container=0;collapsible=0;recursiveResize=0;rounded=0;shadow=0;strokeWidth=1;" vertex="1" parent="1">
          <mxGeometry x="730" y="80" width="100" height="300" as="geometry" />
        </mxCell>
        <mxCell id="lReozOARqJlpO5b43kN0-19" value="DAO" style="shape=umlLifeline;perimeter=lifelinePerimeter;container=0;collapsible=0;recursiveResize=0;rounded=0;shadow=0;strokeWidth=1;" vertex="1" parent="1">
          <mxGeometry x="650" y="80" width="70" height="300" as="geometry" />
        </mxCell>
        <mxCell id="lReozOARqJlpO5b43kN0-20" value="consulto usuario" style="verticalAlign=bottom;endArrow=open;dashed=1;endSize=8;exitX=1;exitY=0.95;shadow=0;strokeWidth=1;" edge="1" parent="1">
          <mxGeometry relative="1" as="geometry">
            <mxPoint x="575" y="210" as="targetPoint" />
            <mxPoint x="375" y="210" as="sourcePoint" />
          </mxGeometry>
        </mxCell>
        <mxCell id="lReozOARqJlpO5b43kN0-21" value="consulto user" style="verticalAlign=bottom;endArrow=open;dashed=1;endSize=8;exitX=1;exitY=0.95;shadow=0;strokeWidth=1;startArrow=none;" edge="1" parent="1" source="lReozOARqJlpO5b43kN0-26">
          <mxGeometry relative="1" as="geometry">
            <mxPoint x="680" y="210" as="targetPoint" />
            <mxPoint x="585" y="210" as="sourcePoint" />
          </mxGeometry>
        </mxCell>
        <mxCell id="lReozOARqJlpO5b43kN0-22" value="busco user" style="verticalAlign=bottom;endArrow=open;dashed=1;endSize=8;exitX=1;exitY=0.95;shadow=0;strokeWidth=1;" edge="1" parent="1">
          <mxGeometry relative="1" as="geometry">
            <mxPoint x="770" y="210" as="targetPoint" />
            <mxPoint x="690" y="210" as="sourcePoint" />
          </mxGeometry>
        </mxCell>
        <mxCell id="lReozOARqJlpO5b43kN0-23" value="" style="points=[];perimeter=orthogonalPerimeter;rounded=0;shadow=0;strokeWidth=1;" vertex="1" parent="1">
          <mxGeometry x="680" y="270" width="10" height="20" as="geometry" />
        </mxCell>
        <mxCell id="lReozOARqJlpO5b43kN0-24" value="" style="points=[];perimeter=orthogonalPerimeter;rounded=0;shadow=0;strokeWidth=1;" vertex="1" parent="1">
          <mxGeometry x="575" y="270" width="10" height="20" as="geometry" />
        </mxCell>
        <mxCell id="lReozOARqJlpO5b43kN0-25" value="" style="points=[];perimeter=orthogonalPerimeter;rounded=0;shadow=0;strokeWidth=1;" vertex="1" parent="1">
          <mxGeometry x="680" y="200" width="10" height="30" as="geometry" />
        </mxCell>
        <mxCell id="lReozOARqJlpO5b43kN0-26" value="" style="points=[];perimeter=orthogonalPerimeter;rounded=0;shadow=0;strokeWidth=1;" vertex="1" parent="1">
          <mxGeometry x="575" y="200" width="10" height="10" as="geometry" />
        </mxCell>
        <mxCell id="lReozOARqJlpO5b43kN0-27" value="" style="verticalAlign=bottom;endArrow=none;dashed=1;endSize=8;exitX=1;exitY=0.95;shadow=0;strokeWidth=1;" edge="1" parent="1" target="lReozOARqJlpO5b43kN0-26">
          <mxGeometry relative="1" as="geometry">
            <mxPoint x="680" y="210" as="targetPoint" />
            <mxPoint x="585" y="210" as="sourcePoint" />
          </mxGeometry>
        </mxCell>
        <mxCell id="lReozOARqJlpO5b43kN0-29" value="" style="points=[];perimeter=orthogonalPerimeter;rounded=0;shadow=0;strokeWidth=1;" vertex="1" parent="1">
          <mxGeometry x="775" y="200" width="10" height="20" as="geometry" />
        </mxCell>
        <mxCell id="lReozOARqJlpO5b43kN0-31" value="" style="points=[];perimeter=orthogonalPerimeter;rounded=0;shadow=0;strokeWidth=1;" vertex="1" parent="1">
          <mxGeometry x="775" y="230" width="10" height="20" as="geometry" />
        </mxCell>
        <mxCell id="lReozOARqJlpO5b43kN0-32" value="" style="curved=1;endArrow=classic;html=1;rounded=0;" edge="1" parent="1">
          <mxGeometry width="50" height="50" relative="1" as="geometry">
            <mxPoint x="785" y="210" as="sourcePoint" />
            <mxPoint x="785" y="240" as="targetPoint" />
            <Array as="points">
              <mxPoint x="855" y="220" />
              <mxPoint x="785" y="240" />
            </Array>
          </mxGeometry>
        </mxCell>
        <mxCell id="lReozOARqJlpO5b43kN0-35" value="creo user" style="text;html=1;strokeColor=none;fillColor=none;align=center;verticalAlign=middle;whiteSpace=wrap;rounded=0;" vertex="1" parent="1">
          <mxGeometry x="830" y="200" width="60" height="30" as="geometry" />
        </mxCell>
        <mxCell id="lReozOARqJlpO5b43kN0-38" value="" style="points=[];perimeter=orthogonalPerimeter;rounded=0;shadow=0;strokeWidth=1;" vertex="1" parent="1">
          <mxGeometry x="775" y="260" width="10" height="20" as="geometry" />
        </mxCell>
        <mxCell id="lReozOARqJlpO5b43kN0-39" value="devuelvo user" style="verticalAlign=bottom;endArrow=open;dashed=1;endSize=8;exitX=0;exitY=0.95;shadow=0;strokeWidth=1;" edge="1" parent="1">
          <mxGeometry relative="1" as="geometry">
            <mxPoint x="690" y="280" as="targetPoint" />
            <mxPoint x="765" y="279.9999999999998" as="sourcePoint" />
          </mxGeometry>
        </mxCell>
        <mxCell id="lReozOARqJlpO5b43kN0-40" value="devuelvo user" style="verticalAlign=bottom;endArrow=open;dashed=1;endSize=8;exitX=0;exitY=0.95;shadow=0;strokeWidth=1;" edge="1" parent="1">
          <mxGeometry relative="1" as="geometry">
            <mxPoint x="590" y="280" as="targetPoint" />
            <mxPoint x="665" y="279.9999999999998" as="sourcePoint" />
          </mxGeometry>
        </mxCell>
        <mxCell id="lReozOARqJlpO5b43kN0-42" value="devuelvo user completo" style="verticalAlign=bottom;endArrow=open;dashed=1;endSize=8;shadow=0;strokeWidth=1;" edge="1" parent="1" target="3nuBFxr9cyL0pnOWT2aG-1">
          <mxGeometry relative="1" as="geometry">
            <mxPoint x="420" y="280" as="targetPoint" />
            <mxPoint x="560" y="280" as="sourcePoint" />
          </mxGeometry>
        </mxCell>
        <mxCell id="lReozOARqJlpO5b43kN0-49" value="" style="endArrow=none;dashed=1;html=1;rounded=0;" edge="1" parent="1" target="lReozOARqJlpO5b43kN0-46">
          <mxGeometry width="50" height="50" relative="1" as="geometry">
            <mxPoint x="80" y="359.5" as="sourcePoint" />
            <mxPoint x="170" y="359.5" as="targetPoint" />
          </mxGeometry>
        </mxCell>
        <mxCell id="lReozOARqJlpO5b43kN0-50" value="usuario creado exitosamente" style="text;html=1;strokeColor=none;fillColor=none;align=center;verticalAlign=middle;whiteSpace=wrap;rounded=0;" vertex="1" parent="1">
          <mxGeometry x="140" y="330" width="180" height="30" as="geometry" />
        </mxCell>
      </root>
    </mxGraphModel>
  </diagram>
</mxfile>
